<?xml version="1.0" encoding="utf-8"?>
<!-- Generator: Adobe Illustrator 23.0.0, SVG Export Plug-In . SVG Version: 6.00 Build 0)  -->
<svg version="1.1" id="레이어_1" xmlns="http://www.w3.org/2000/svg" xmlns:xlink="http://www.w3.org/1999/xlink" x="0px"
	 y="0px" viewBox="0 0 240 64" style="enable-background:new 0 0 240 64;" xml:space="preserve">
<g>
	<path style="fill:#3E3A39;" d="M86.733,26.443c0,2.227-0.695,4.018-2.073,5.357c-1.38,1.341-3.24,2.013-5.571,2.013
		c-2.334,0-4.197-0.672-5.586-2.013c-1.386-1.339-2.08-3.13-2.08-5.357c0-2.212,0.694-3.987,2.08-5.331
		c1.389-1.342,3.252-2.013,5.586-2.013c2.331,0,4.191,0.671,5.571,2.013C86.037,22.455,86.733,24.231,86.733,26.443 M82.42,26.443
		c0-1.155-0.306-2.109-0.916-2.864c-0.611-0.755-1.416-1.132-2.416-1.132s-1.807,0.377-2.418,1.132
		c-0.613,0.755-0.918,1.709-0.918,2.864c0,1.17,0.305,2.135,0.918,2.891c0.611,0.756,1.418,1.135,2.418,1.135
		s1.805-0.379,2.416-1.135C82.114,28.577,82.42,27.612,82.42,26.443 M95.007,45.264H78.088c-1.389,0-2.084-0.65-2.084-1.955v-7.285
		h4.473v5.53c0,0.472,0.271,0.708,0.807,0.708h13.724V45.264z M94.149,37.3h-4.477V19.186h4.477V37.3z"/>
	<path style="fill:#3E3A39;" d="M114.682,32.622l-1.586,2.667c-1.275-0.379-2.522-1.041-3.736-1.987
		c-1.213-0.945-2.08-1.945-2.596-3.006c-0.481,1.117-1.35,2.176-2.6,3.177c-1.251,1.003-2.605,1.738-4.07,2.211l-1.643-2.749
		c3.93-1.53,5.895-4.056,5.895-7.571v-0.623h-5.25v-2.979h5.274v-3.144h4.478v3.144h5.307v2.979h-5.25v0.623
		c0,1.57,0.471,2.979,1.414,4.225C111.336,30.911,112.794,31.925,114.682,32.622 M122.792,45.265h-16.975
		c-0.737,0-1.272-0.155-1.596-0.466c-0.326-0.311-0.486-0.829-0.486-1.545v-6.861h4.473v5.13c0,0.494,0.26,0.739,0.781,0.739h13.803
		V45.265z M121.934,37.497h-4.475v-8.08h-4.749v-2.92h4.749v-7.315h4.475V37.497z"/>
	<path style="fill:#3E3A39;" d="M152.466,29.389h-3.969v9.272h-4.477v-5.784c-0.666,0.68-1.896,1.155-3.691,1.419
		c-1.189,0.187-3.795,0.278-7.811,0.278h-6.254v-2.972h3.781v-5.444h4.139v5.444c3.244,0,5.393-0.059,6.445-0.171
		c1.15-0.132,1.965-0.34,2.447-0.625c0.631-0.354,0.943-0.962,0.943-1.817v-9.808h4.477v7.233h3.969V29.389z M141.548,21.737
		l-0.58,7.652h-3.949v-5.842c0-0.679-0.287-1.019-0.857-1.019h-8.477V19.55h11.834C140.968,19.55,141.642,20.28,141.548,21.737
		 M149.521,45.634h-17.307c-1.353,0-2.029-0.681-2.029-2.041v-6.578h4.473v4.934c0,0.474,0.254,0.709,0.754,0.709h14.109V45.634z"/>
	<path style="fill:#3E3A39;" d="M180.255,27.804h-3.975v6.46h-4.473v-2.435c-0.668,0.659-1.902,1.135-3.695,1.417
		c-1.189,0.17-3.789,0.257-7.809,0.257h-6.252V30.64h3.781v-4.879h4.139v4.879c3.24,0,5.391-0.059,6.447-0.172
		c1.146-0.131,1.961-0.342,2.443-0.623c0.629-0.359,0.945-0.965,0.945-1.816v-8.846h4.473v5.672h3.975V27.804z M169.306,21.622
		l-0.525,7.002h-3.977v-5.302c0-0.68-0.283-1.02-0.859-1.02h-8.477v-2.865h11.84C168.752,19.438,169.42,20.166,169.306,21.622
		 M176.197,40.618c0,1.815-0.682,3.285-2.057,4.409c-1.367,1.124-3.277,1.685-5.721,1.685c-2.445,0-4.375-0.566-5.781-1.699
		c-1.332-1.117-2-2.58-2-4.395c0-1.832,0.668-3.299,2-4.396c1.406-1.15,3.336-1.726,5.781-1.726c2.443,0,4.354,0.56,5.721,1.685
		C175.515,37.305,176.197,38.786,176.197,40.618 M171.836,40.618c0-0.906-0.305-1.625-0.916-2.154
		c-0.613-0.531-1.445-0.795-2.5-0.795c-1.057,0-1.895,0.264-2.518,0.795c-0.621,0.529-0.926,1.248-0.926,2.154
		c0,0.889,0.305,1.596,0.926,2.127c0.623,0.527,1.461,0.793,2.518,0.793c1.055,0,1.887-0.266,2.5-0.793
		C171.531,42.214,171.836,41.507,171.836,40.618"/>
	<path style="fill:#3E3A39;" d="M207.148,33.642h-25.395v-2.975h8.086V25.79h4.504v4.877h12.805V33.642z M203.957,21.311
		l-0.643,7.427h-4.275v-5.528c0-0.681-0.287-1.018-0.867-1.018h-12.918v-2.977h16.949C203.5,19.214,204.084,19.91,203.957,21.311
		 M202.423,40.702c0,1.871-0.682,3.334-2.055,4.394c-1.426,1.082-3.408,1.616-5.945,1.616c-2.537,0-4.506-0.531-5.904-1.602
		c-1.4-1.065-2.098-2.537-2.098-4.408c0-1.853,0.697-3.315,2.098-4.394c1.398-1.079,3.367-1.615,5.904-1.615
		c2.537,0,4.504,0.536,5.906,1.615C201.728,37.386,202.423,38.849,202.423,40.702 M198.148,40.702c0-0.924-0.34-1.678-1.014-2.252
		c-0.678-0.58-1.582-0.865-2.711-0.865c-1.131,0-2.031,0.285-2.707,0.865c-0.676,0.574-1.014,1.328-1.014,2.252
		c0,0.945,0.338,1.707,1.014,2.283c0.676,0.576,1.576,0.863,2.707,0.863c1.129,0,2.033-0.287,2.711-0.863
		C197.808,42.409,198.148,41.647,198.148,40.702"/>
	<path style="fill:#3E3A39;" d="M225.988,36.534l-2.055,2.607c-1.166-0.547-2.439-1.571-3.818-3.074
		c-1.381-1.502-2.277-2.859-2.686-4.068c-0.313,1.228-1.111,2.574-2.387,4.038c-1.279,1.468-2.641,2.607-4.084,3.42l-2.143-2.553
		c2.334-1.628,3.984-3.543,4.947-5.756c0.871-1.965,1.305-4.478,1.305-7.542v-4.081h4.529v4.081
		C219.597,29.39,221.728,33.699,225.988,36.534 M235.961,30.408h-4.307v15.285h-4.469v-26.51h4.469v8.25h4.307V30.408z"/>
	<path style="fill:#E43D30;" d="M52.834,25.452c0-0.313,0.828-0.119,0.828,0c0,0.117-0.03,1.086,0,1.627
		c0.013,0.178-0.051,1.25,0.34,2.973c1.244-0.627,2.291-1.407,3.119-2.133c1.246-1.086,1.984-2.04,3.039-4.715
		c1.199-3.043,0.518-4.039,0.369-6.179c-0.369-5.348-1.098-8.073-4.703-10.236c-2.711-1.625-2.748-2.657-9.312-2.67
		c-5.146-0.016-9.315,1.655-10.606,5.529c-0.924,2.773-2.604,4.408-2.486,7.297c0.502,0.251,1.164,0.483,1.544,0.547
		c0.5,0.083,1.458,0.54,1.538,1.248c0.084,0.71-1.455,1.001-2.166,1.001c-0.279,0-0.461,0.086-0.627,0.185
		c0.121,0.971,0.23,1.861,0.262,2.538c0.139,3.125,2.273,4.703,2.971,5.818c0.693,1.116,2.885,2.329,4.775,2.574
		c3.15,0.409,4.68,0.258,6.842,0.375c1.405,0.074,2.66-0.131,3.791-0.495c0.26-1.129,0.482-2.075,0.482-2.292V25.452z
		 M48.035,26.229c-1.369-0.074-2.33,0.021-4.319-0.237c-1.194-0.154-2.573-0.921-3.011-1.621c-0.439-0.705-1.787-1.7-1.873-3.674
		c-0.037-0.82-0.268-2.133-0.348-3.369c-0.127-1.895,0.975-2.927,1.57-4.711c0.814-2.443,3.443-3.499,6.688-3.49
		c4.14,0.008,4.16,0.661,5.873,1.686c2.274,1.364,2.732,3.085,2.969,6.458c0.088,1.35,0.521,1.976-0.236,3.896
		c-0.662,1.684-1.129,2.292-1.917,2.976C52.277,25.146,50.494,26.357,48.035,26.229"/>
	<path style="fill:#0099A8;" d="M10.014,13.775c1.856-0.287,4.76,0.863,5.109,0.728c0.35-0.138,1.287-1.543,2.25-3.559
		c0.402-0.845,1.162-1.109,1.982-1.489c0.623-0.287,1.264-0.805,1.896-0.756c1.166,0.092,2.986,0.246,4.348,0.929
		c2.051,1.032,4.351,1.981,5.32,2.626c-0.094-0.599-0.215-1.145-0.402-1.615c-0.381-0.971,0.188-2.189-0.748-3.137
		c-4.166-4.242-11.61-2.496-16.965-2.496C9.94,5.009,5.965,6.527,6.11,8.286c0.147,1.758-2.142,4.235-2.069,6.793
		c0.071,2.303,0.103,4.279,0.182,5.985c0.222-0.964,0.592-1.972,1.383-2.728C7.032,16.964,8.881,13.947,10.014,13.775"/>
	<path style="fill:#0099A8;" d="M28.437,19.795c-0.632,0.108-2.282-0.109-2.668-0.938c-0.382-0.826,0.605-1.346,1.214-1.43
		c0.605-0.081,1.043-0.439,2.035-0.907c0.712-0.335,1.641-0.316,2.117-0.28c0.002-1.156-0.023-2.173-0.102-3.064
		c-0.473,0.299-1.369,0.503-2.729,0.396c-1.418-0.11-3.589-0.795-4.757-0.683c-1.47,0.144-2.931,0.653-3.474,1.789
		c-0.367,0.772-1.273,1.649-1.68,2.401c-0.886,1.659-2.223,1.454-4.143,0.813c-1.512-0.448-2.989,0.361-4.42,0.903
		c-1.439,0.541-2.733,2.678-3.557,3.641c-0.748,0.874-1.41,1.302-1.856,1.384c0.047,0.428,0.099,0.839,0.163,1.221
		c0.412,2.421-0.204,3.366,0.687,4.419c1.188,1.404,4.155,1.354,6.854,1.598c3.074,0.279,6.609-0.131,10.625-0.324
		c2.197-0.105,4.143,0.577,5.08,0.109c1.013-0.51,2.351-1.012,2.809-2.379c0.42-1.267,0.434-3.528,0.434-6.158
		c0-0.675,0.004-1.313,0.012-1.932C30.094,20.157,29.009,19.695,28.437,19.795 M19.908,27.192c-0.392,0.024-0.99,0.004-2.021,0.28
		c-0.475,0.13-1.63-0.043-2.128-0.276c-0.497-0.237-0.86-0.108-1.515-0.213c-0.656-0.104-1.076-0.63-0.996-0.972
		c0.08-0.34,0.498-0.55,0.941-0.656c0.447-0.104,0.92-0.158,1.338-0.551c0.42-0.392,1.262-0.608,1.654-0.604
		c1.469,0.026,2.346,0.886,2.914,1.007c0.643,0.139,2.74,0.309,2.77,0.979C22.906,27.235,20.305,27.167,19.908,27.192"/>
	<path style="fill:#639A1C;" d="M23.822,55.286c-1.539,0-3.072,0.108-4.568-0.195c-1.783-0.367-3.82-1.41-5.002-1.629
		c-1.182-0.219-1.906-0.137-2.911-0.219c-1.166-0.096-2.413-0.338-4.171,0.111c-1.197,0.307-2.043,0.7-2.516,0.953
		c0.233,0.668,0.467,1.244,0.502,1.871c0.094,1.497,1.365,2.87,3.244,3.352c1.83,0.467,3.696-0.16,6.266-0.109
		c4.139,0.08,6.625,0.109,10.732,0.109c2.326,0,3.748-1.756,4.541-3.242c0.367-0.692,0.404-1.738,0.615-2.877
		c0.039-0.189,0.079-0.383,0.123-0.576c-0.859,0.471-1.736,0.855-2.529,1.414C26.807,55.202,25.3,55.286,23.822,55.286"/>
	<path style="fill:#639A1C;" d="M10.584,49.831c1.301,0.002,2.27,0.152,3.749,0.586c0,0,1.005,0.142,1.709,0.394
		c0.694,0.252,1.321,0.485,1.985,0.671c2.439,0.684,4.332,1.178,6.486,0.95c1.19-0.122,2.352-0.502,3.635-1.567
		c0.961-0.789,2.096-0.996,2.939-2.178l0.006,0.003c-0.146-2.853-0.367-5.771-0.481-9.838c-0.106-3.989-1.676-4.177-5.321-4.177
		c-1.454,0-3.956-1.553-6.808-1.405c-4.432,0.233-7.435,0.199-9.598,0.612c-1.3,0.248-2.25,0.828-3.049,1.625
		c-0.543,0.541-1.15,0.892-1.23,2.408c-0.1,1.899,0,5.213-0.207,7.674c-0.168,2.002-0.233,3.918-0.235,5.621
		c0.642-0.285,1.481-0.629,2.446-0.959C7.758,49.859,9.152,49.827,10.584,49.831 M7.57,46.915c0.168-1.06,1.572-2.735,2.051-3.422
		c0.481-0.683,1.164-1.845,1.574-2.117c0.412-0.275,1.605-0.856,2.256-0.924c0.65-0.072,1.164,0,1.541,0.273
		c0.375,0.275,0.89,1.127,1.127,1.266c0.238,0.135,0.648,0.479,1.025,1.06c0.377,0.581,0.535,0.538,0.703,1.22
		c0.17,0.686,0.252,0.602,0.596,1.585c0.127,0.358,0.065,0.718,0.338,1.3c0.271,0.579,0.185,1.205,0.082,1.719
		c-0.101,0.514-2.045,0.383-2.559,0.209c-0.513-0.17-1.783-0.752-2.089-0.787c-0.308-0.035-1.575-0.241-2.222-0.377
		c-0.652-0.137-1.881-0.037-2.578-0.08c-0.633-0.041-1.678,0.171-1.678,0.171S7.447,47.659,7.57,46.915"/>
	<path style="fill:#C9C9CA;" d="M53.203,31.253c0,0-0.102,1.04-0.217,2.084c0.272-0.014,0.528-0.028,0.776-0.039
		C53.481,32.236,53.203,31.253,53.203,31.253"/>
	<path style="fill:#002E4B;" d="M54.291,35.549c-0.08-0.5-0.303-1.401-0.528-2.25c-0.248,0.01-0.505,0.023-0.777,0.039
		c-0.091,0.828-0.194,1.655-0.269,1.975c-0.164,0.72-0.223,1.258-0.211,1.902c0.009,0.234-0.012,0.444-0.035,0.639
		c0.77-0.293,1.49-0.569,2.141-0.814C54.508,36.649,54.383,36.115,54.291,35.549"/>
	<path style="fill:#002E4B;" d="M49.488,38.966c0.514-0.186,1.016-0.371,1.512-0.557c0.18-0.825,0.475-2.332,0.504-3.285
		c0.013-0.371,0.117-0.997,0.26-1.715c-1.113,0.063-2.293,0.123-3.361,0.123c-1.93,0-3.591,0.215-5.309,0.162
		c-2.727-0.082-5.029-0.131-6.439,0.176c-1.561,0.341-1.133,0.975-1.563,1.732c-0.341,0.598-0.903,1.965-1.122,3.133
		c-0.264,1.434-0.172,3.453-0.129,5.611c0.814-0.299,6.412-2.354,8.467-3.023C43.383,40.97,46.332,40.1,49.488,38.966"/>
	<path style="fill:#002E4B;" d="M53.74,46.823c0.217,0.275,0.808,0.916,0.808,0.916l0.528-0.982c0,0,0.304-4.291,0.293-5.091
		c-0.008-0.804,0.059-0.974,0.059-0.974l-2.266-0.449c-0.205,0.06-0.408,0.119-0.614,0.179c0.127,0.778,0.465,2.835,0.685,3.653
		C53.507,45.093,53.522,46.544,53.74,46.823"/>
	<path style="fill:#002E4B;" d="M39.803,46.95c0.936,0.049,2.047-0.035,3.256,0.139c0.406,0.057,1.57,0.632,2.031,0.785
		c1.047,0.35,2.109,0.738,3.381,1.168c1.414,0.48,2.748,1.32,4.486,1.721c1.379,0.316,2.396,0.307,3.992,0.493
		c1.145,0.131,2.27-0.136,3.426-0.222c-0.142-1.154-0.349-2.348-0.332-3.504c0.061-3.707,0.307-7.233,0.01-9.346
		c-0.453,0.096-1.242,0.297-2.545,0.737c-0.264,0.092-0.588,0.194-0.945,0.307c0.068,0.31,0.109,0.499,0.109,0.499
		s0.211,2.114,0.186,3.055c-0.022,0.939,0.163,0.707,0.099,1.646c-0.068,0.942,0.057,2.695,0.057,2.695l1.935,1.125
		c0,0,0.046,0.467-0.138,0.888c-0.19,0.419-2.723,0.604-2.723,0.604s-2.164-0.233-3.223-0.604c-1.063-0.374-2.908-1.306-2.908-1.306
		s-0.09-0.327,0-0.7c0.092-0.374,1.617-0.888,1.617-0.888s-0.486-1.871-0.404-2.617c0.047-0.395-0.041-1.664-0.133-2.773
		c-1.641,0.461-3.07,0.855-3.66,1.01c-1.427,0.367-2.564,0.451-4.98,1.088c-2.049,0.543-4.217,1.129-5.252,1.449
		c-1.855,0.572-2.954,0.82-3.291,0.891c0,0.13,0.004,0.257,0.005,0.384c0.003,0.89-0.018,1.524-0.04,2.088
		c0.686-0.269,1.674-0.638,2.542-0.812C37.41,46.745,38.461,46.882,39.803,46.95"/>
	<path style="fill:#002E4B;" d="M55.598,54.559c-1.602-0.26-2.713-0.629-4.059-0.92c-1.796-0.392-3.084-1.412-4.545-1.906
		c-1.709-0.577-3.275-1.627-4.365-1.779c-0.922-0.133-1.443,0.127-2.275,0.121c-1.367-0.014-2.887-0.098-3.81,0.063
		c-1.503,0.258-2.37,0.633-2.763,0.836c0.008,0.192,0.013,0.394,0.023,0.614c0.08,1.843,0.803,4.157,2.01,5.118
		c0.605,0.48,2.555,2.465,3.363,2.771c1.998,0.756,3.51,0.224,6.207,0.195c3.149-0.037,5.654,0.006,8.56-0.46
		c1.338-0.214,3.397,0.154,4.253-0.661c1.129-1.076,1.773-2.646,2.182-4.474c0.004-0.021,0.004-0.041,0.01-0.062
		c-0.035,0-0.07,0.002-0.104,0.002C58.859,54.018,56.99,54.792,55.598,54.559"/>
	<path style="fill:#002E4B;" d="M55.897,36.567c0.48-0.17,0.896-0.305,1.209-0.387c0.976-0.255,1.705-0.459,2.236-0.619
		c-0.313-0.619-0.715-0.931-1.369-1.236c-0.615-0.285-1.404-1.026-2.631-1.063c-0.139-0.003-0.307-0.002-0.472,0
		c0.187,0.637,0.388,1.282,0.599,1.883C55.606,35.549,55.754,36.049,55.897,36.567"/>
</g>
</svg>
