<?xml version="1.0" encoding="utf-8"?>
<!-- Generator: Adobe Illustrator 24.1.2, SVG Export Plug-In . SVG Version: 6.00 Build 0)  -->
<svg version="1.1" id="레이어_1" xmlns="http://www.w3.org/2000/svg" xmlns:xlink="http://www.w3.org/1999/xlink" x="0px"
	 y="0px" viewBox="0 0 113.39 113.39" style="enable-background:new 0 0 113.39 113.39;" xml:space="preserve">
<style type="text/css">
	.st0{fill:#F08719;}
	.st1{fill:#FFFFFF;}
</style>
<circle class="st0" cx="56.69" cy="56.69" r="55.09"/>
<path class="st1" d="M87.09,40.9c0,3.55-1.02,6.64-1.02,6.64c-1.02,3.09-2.3,5.03-2.3,5.03c-1.28,1.94-3.62,3.91-3.62,3.91
	c-2.34,1.97-3.78,2.86-3.78,2.86c-1.45,0.89-4.01,2.34-4.01,2.34c-2.7,1.51-4.51,4.28-4.51,4.28c-1.81,2.76-1.81,4.41-1.81,4.41
	c0,1.12-0.79,2.14-0.79,2.14c-0.79,1.02-1.84,1.02-1.84,1.02H47.61c-0.99,0-1.68-1.22-1.68-1.22c-0.69-1.22-0.69-2.47-0.69-2.47
	v-2.96c0-5.46,4.28-10.3,4.28-10.3c4.28-4.84,9.41-7.14,9.41-7.14c3.88-1.78,5.53-3.68,5.53-3.68c1.64-1.91,1.64-5,1.64-5
	c0-2.76-3.06-4.87-3.06-4.87c-3.06-2.11-7.07-2.11-7.07-2.11c-4.28,0-7.1,1.91-7.1,1.91c-2.3,1.64-7.04,7.57-7.04,7.57
	c-0.86,1.05-2.04,1.05-2.04,1.05c-0.79,0-1.64-0.53-1.64-0.53l-10.79-8.22c-0.86-0.66-1.02-1.64-1.02-1.64
	c-0.16-0.99,0.36-1.84,0.36-1.84c10.53-17.5,30.52-17.5,30.52-17.5c5.26,0,10.59,2.04,10.59,2.04c5.33,2.04,9.6,5.46,9.6,5.46
	c4.28,3.42,6.97,8.39,6.97,8.39C87.09,35.44,87.09,40.9,87.09,40.9z M66.3,80.38v15.79c0,1.05-0.79,1.84-0.79,1.84
	c-0.79,0.79-1.84,0.79-1.84,0.79H47.88c-1.05,0-1.84-0.79-1.84-0.79c-0.79-0.79-0.79-1.84-0.79-1.84V80.38
	c0-1.05,0.79-1.84,0.79-1.84c0.79-0.79,1.84-0.79,1.84-0.79h15.79c1.05,0,1.84,0.79,1.84,0.79C66.3,79.32,66.3,80.38,66.3,80.38z"/>
</svg>
